<svg version="1.2" xmlns="http://www.w3.org/2000/svg" viewBox="0 0 1434 238" width="256" height="42">
	<title>logo</title>
	<style>
		.s0 { fill: #3999fb } 
		.s1 { fill: #3b99fc } 
	</style>
	<g id="Page-1">
		<g id="walletconnect-logo-2">
			<path id="WalletConnect" fill-rule="evenodd" class="s0" d="m502.4 99.5l-20 72.1h-20.8l-28-105.5h22.9l16.6 76.4h0.6l19.7-76.4h18.6l19.7 76.4h0.6l16.7-76.4h22.9l-28 105.5h-20.8l-20-72.1zm92.9 73.3c-14.9 0-26.2-9.6-26.2-23.8 0-14.3 11-22.5 30.5-23.7l19.7-1.2v-5.1c0-7.3-5.1-11.5-13.2-11.5-8 0-13 3.9-14 9.7h-19.5c0.8-15.2 13.7-25.7 34.5-25.7 20.1 0 33.2 10.4 33.2 26.2v53.9h-20.6v-12h-0.4c-4.5 8.3-14.2 13.2-24 13.2zm7-15.5c9.3 0 17-6.1 17-14.5v-5.7l-16.5 1c-8 0.6-12.5 4.2-12.5 9.7-0.1 5.9 4.8 9.5 12 9.5zm52.2-91.2h21.3v105.5h-21.3zm36.2 0h21.3v105.5h-21.3zm87.6 81.5h19.6c-2.3 15.3-16.4 25.7-35.7 25.7-24.1 0-38.6-15.4-38.6-40.5 0-25 14.6-41.2 37.8-41.2 22.8 0 37.2 15.4 37.2 39.2v6.5h-54v1.3c0 11.2 7.1 18.9 18 18.9 7.8-0.1 13.8-4 15.7-9.9zm-16.7-40.3c-9.4 0-16.1 7.1-16.8 16.9h33.3c-0.5-10-7-16.9-16.5-16.9zm74.9-32.2v18.1h14.5v16.1h-14.5v37.5c0 6 2.9 8.8 9.2 8.8 1.9 0 3.9-0.1 5.2-0.4v15.7c-2.2 0.5-5.8 0.9-10.2 0.9-18.4 0-25.6-6.1-25.6-21.4v-41.1h-11v-16.1h11v-18.1zm74.7 98.2c-30.7 0-49.9-20.5-49.9-54.6 0-34 19.4-54.5 49.9-54.5 25.4 0 44.7 16.1 46.3 39.7h-21.5c-2-12.9-12-21.4-24.8-21.4-16.7 0-27.4 14-27.4 36.2 0 22.5 10.6 36.4 27.5 36.4 13.1 0 22.5-7.7 24.8-20.2h21.5c-2.5 23.5-20.5 38.4-46.4 38.4zm94.1-0.1c-23.7 0-38.8-15.2-38.8-40.9 0-25.4 15.3-40.8 38.8-40.8 23.5 0 38.8 15.3 38.8 40.8 0 25.8-15.1 40.9-38.8 40.9zm0-16.3c10.5 0 17.1-8.8 17.1-24.6 0-15.6-6.7-24.6-17.1-24.6-10.4 0-17.2 9-17.2 24.6 0.1 15.8 6.7 24.6 17.2 24.6zm49.8-63.7h20.6v14h0.4c4.2-9.7 12.4-15.4 24.5-15.4 17.4 0 27.2 11 27.2 29.3v50.5h-21.3v-46c0-10.2-4.8-16.1-14.4-16.1-9.6 0-15.6 7-15.6 17.2v44.9h-21.4zm86.2 0h20.6v14h0.4c4.2-9.7 12.4-15.4 24.5-15.4 17.4 0 27.2 11 27.2 29.3v50.5h-21.3v-46c0-10.2-4.8-16.1-14.4-16.1-9.6 0-15.6 7-15.6 17.2v44.9h-21.4zm138.1 54.4h19.6c-2.3 15.3-16.4 25.7-35.7 25.7-24.1 0-38.6-15.4-38.6-40.5 0-25 14.6-41.2 37.8-41.2 22.8 0 37.2 15.4 37.2 39.2v6.5h-54v1.3c0 11.2 7.1 18.9 18 18.9 7.8-0.1 13.8-4 15.7-9.9zm-16.7-40.3c-9.4 0-16.1 7.1-16.8 16.9h33.3c-0.5-10-7-16.9-16.5-16.9zm119.1 15h-19.8c-1.2-8.3-6.7-14.1-15.5-14.1-10.5 0-17.1 8.9-17.1 24 0 15.4 6.6 24.2 17.2 24.2 8.6 0 14.1-5.1 15.4-13.7h19.9c-1.1 18.5-14.9 30.4-35.5 30.4-23.6 0-38.6-15.3-38.6-40.9 0-25.1 15-40.8 38.4-40.8 21.2 0.1 34.7 13.2 35.6 30.9zm37.4-47.2v18.1h14.5v16.1h-14.5v37.5c0 6 2.9 8.8 9.2 8.8 1.9 0 3.9-0.1 5.2-0.4v15.7c-2.2 0.5-5.8 0.9-10.2 0.9-18.4 0-25.6-6.1-25.6-21.4v-41.1h-11v-16.1h11v-18.1z"/>
			<path id="WalletConnect_00000073703063438220642730000002917717552236472496_" class="s1" d="m79.4 46.4c63.2-61.9 165.7-61.9 228.9 0l7.6 7.4c3.2 3.1 3.2 8.1 0 11.2l-26 25.5c-1.6 1.5-4.1 1.5-5.7 0l-10.5-10.3c-44.1-43.2-115.6-43.2-159.7 0l-11.2 11c-1.6 1.5-4.1 1.5-5.7 0l-26.1-25.4c-3.2-3.1-3.2-8.1 0-11.2zm282.7 52.7l23.2 22.7c3.2 3.1 3.2 8.1 0 11.2l-104.5 102.3c-3.2 3.1-8.3 3.1-11.4 0l-74.1-72.6c-0.8-0.8-2.1-0.8-2.9 0l-74.1 72.6c-3.2 3.1-8.3 3.1-11.4 0l-104.5-102.3c-3.2-3.1-3.2-8.1 0-11.2l23.2-22.7c3.2-3.1 8.3-3.1 11.4 0l74.1 72.6c0.8 0.8 2.1 0.8 2.9 0l74.1-72.6c3.2-3.1 8.3-3.1 11.4 0l74.1 72.6c0.8 0.8 2.1 0.8 2.9 0l74.1-72.6c3.2-3.1 8.3-3.1 11.5 0z"/>
		</g>
	</g>
</svg>