<svg version="1.2" xmlns="http://www.w3.org/2000/svg" viewBox="0 0 218 218" width="36" height="36">
	<title>argent-wallet-seeklogo</title>
	<style>
		.s0 { fill: #333332 } 
		.s1 { fill: #ff875b } 
	</style>
	<path class="s0" d="m633.1 68.1h-14.1v-17c0-0.9-0.4-1.7-1.1-2.3-0.7-0.5-1.5-0.7-2.4-0.5l-12.4 3c-1.3 0.3-2.2 1.5-2.2 2.8v13.9h-7.1c-1.6 0-2.8 1.3-2.8 2.9v10.3c0 1.6 1.3 2.9 2.8 2.9h7.1v41.4c0.2 17.6 11.4 20 23.6 20 1.2 0 2.4 0 3.6-0.1 1.2 0 2.5-0.1 3.8-0.1h0.1c1.7-0.2 2.7-1.4 2.7-3v-11c0-1.6-1.3-2.9-2.8-2.9h-4.3c-6.2 0-8.7-2.7-8.7-9.4v-34.9h14.1c1.6 0 2.8-1.3 2.8-2.9v-10.2c0.1-1.6-1.2-2.9-2.7-2.9z"/>
	<path class="s0" d="m557.4 67c-7.4 0-13.1 2.3-17.2 6.8v-2.8c0-1.6-1.2-2.9-2.8-2.9h-13.1c-1.6 0-2.8 1.2-2.8 2.9v71.4c0 1.6 1.2 2.9 2.8 2.9h13.1c1.6 0 2.8-1.2 2.8-2.9v-44.7c0-8.3 5-13.8 12.5-13.8 7.5 0 12.4 5.5 12.4 14v44.6c0 1.6 1.2 2.9 2.8 2.9h13.1c1.6 0 2.8-1.2 2.8-2.9v-48.1c0-16.7-10.4-27.4-26.4-27.4z"/>
	<path class="s0" d="m477.3 67c-15.2 0-26.7 8.6-30.7 22.9-1.3 4.3-1.9 9.6-1.8 16.3 0 8.2 1.1 14.8 3.3 20.2 5 12.7 15.8 19.9 30.6 20.2 0.2 0 0.4 0 0.5 0 12.3 0 22.8-5.1 29-14 0.9-1.3 0.6-2.7-0.6-3.8l-8.8-7.5c-0.8-0.7-1.6-0.8-2.1-0.7-0.5 0.1-1.3 0.4-2 1.4-3.5 5.1-8.3 7.7-14.4 7.7-8.2-0.1-13.5-3.5-15.6-10-0.6-1.4-0.9-3.5-1.1-5.8h44c1.7 0 2.8-1.2 2.8-2.9 0.1-5 0.1-8.8-0.4-12.9-2.4-20.6-13.4-31.1-32.7-31.1zm14.2 32.1h-27.8c0.2-2.5 0.5-4.2 1-5.7v-0.1c1.8-6.2 6.2-9.5 12.6-9.5 6.9 0 11.8 3.7 13.4 10.4 0.4 1.1 0.7 2.8 0.8 4.9z"/>
	<path class="s0" d="m430.9 68.1h-13c-1.6 0-2.8 1.2-2.8 2.9v1.9c-4.3-4-9.9-6-17.1-6-12.7 0-23.1 7.8-27.1 20.3-2.1 5.9-2.3 13.2-2.3 18.9 0 7.5 0.6 13.2 1.9 18 4.5 15 17.7 20.4 28.5 20.4 6.8 0 12.2-1.9 16.1-5.6-0.1 6.3-1.7 10.8-5 13.8-4.3 3.9-11.6 5.4-22.5 4.3-2.8 0-3.1 1.9-3.1 2.7l-0.4 12c0 1.7 0.9 2.8 2.6 3 2.7 0.3 5.3 0.4 7.8 0.4 12.1 0 22.2-3.2 28.9-9.2 6.9-6.2 10.4-15.3 10.4-27v-67.9c-0.1-1.6-1.3-2.9-2.9-2.9zm-15.9 37.9c0 8.1-0.3 10.2-1 12.7-1.5 6.1-6 9.7-12.3 9.7-6.3 0-11.2-3.7-13.1-9.9-0.6-1.6-1.3-5-1.3-12.3 0-5.8 0.5-9.7 1.6-12.5 2.1-6.3 6.7-9.9 12.7-9.9 6.3 0 10.9 3.7 12.4 9.8 0.7 2.7 1 4.6 1 12.4z"/>
	<path class="s0" d="m362.2 68.4c-2-0.8-4.2-1.2-6.7-1.2q-10.1 0-16.2 8.1v-4.3c0-1.6-1.3-2.9-2.8-2.9h-13.1c-1.6 0-2.8 1.3-2.8 2.9v71.4c0 1.6 1.3 2.9 2.8 2.9h13.1c1.6 0 2.8-1.3 2.8-2.9v-41.5c0-8.9 6.5-13.3 12.9-13.7 2.3-0.3 3.5-0.2 5 0.1 1.6 0.3 3.1-0.7 3.5-2.2l3.5-12.7c0.3-1.7-0.5-3.4-2-4z"/>
	<path class="s0" d="m276.3 67c-14.4 0-25.9 6.6-29.3 16.8-0.3 0.9-0.2 1.8 0.3 2.6 0.4 0.7 1.1 1.2 2 1.4l12.9 3.2c1.3 0.2 2.7-0.5 3.2-1.7 1.5-3.5 5.5-5.5 11.4-5.5 7.8 0 11.9 3.8 11.9 10.9v3.1h-14.8c-19.2 0-30.7 9.5-30.7 25.3 0 17.1 13.2 23.2 25.5 23.2 8.3 0 15.1-2.5 19.9-7.1v3.1c0 1.6 1.3 2.9 2.8 2.9h13.1c1.6 0 2.8-1.3 2.8-2.9v-49.3c0.1-15.3-12.7-26-31-26zm12.4 44.9v6.5c0 7.7-8 12.4-15.8 12.4-5.2 0-10.8-2.3-10.8-8.7 0-6.5 5.5-10.2 15.1-10.2z"/>
	<path class="s1" d="m135.5 18.4h-52.4c-1.8 0-3.2 1.5-3.2 3.3-1.1 50.8-26.8 99-71.1 133.1-1.4 1.1-1.7 3.1-0.7 4.6l30.7 43.7c1 1.5 3.1 1.8 4.5 0.7 27.7-21.2 50-46.8 66-75.1 16 28.4 38.3 53.9 66 75.1 1.4 1.1 3.5 0.8 4.5-0.7l30.7-43.7c1-1.5 0.7-3.5-0.7-4.6-44.3-34.1-70-82.3-71.1-133.1 0-1.9-1.4-3.3-3.2-3.3z"/>
</svg>