<svg version="1.2" xmlns="http://www.w3.org/2000/svg" viewBox="0 0 618 618" width="36" height="36">
	<title>bitmart-logo</title>
	<defs>
		<clipPath clipPathUnits="userSpaceOnUse" id="cp1">
			<path d="m0 0h618v618h-618z"/>
		</clipPath>
		<clipPath clipPathUnits="userSpaceOnUse" id="cp2">
			<path d="m0 0h618v618h-618z"/>
		</clipPath>
	</defs>
	<style>
		.s0 { fill: #1f2020 } 
	</style>
	<g>
		<g id="Clip-Path" clip-path="url(#cp1)">
			<path fill-rule="evenodd" class="s0" d="m10-141.6h8.3v5.3h-8.3zm555.3-72c-2.2-1.4-5.3-2-9.5-2-2.5 0-5.1 0.5-7.4 1.5-2.3 1.1-4.4 2.6-6 4.6-3.6 4.1-5.4 9.7-5.4 16.7v32.3h-12.5v-63.4h12.5v13.1h0.3c1.6-4.2 4.5-7.9 8.2-10.4 3.6-2.5 7.9-3.8 12.3-3.8 2.5-0.1 5.1 0.2 7.5 0.9v0.2h11.4v-15.5l12.5-3.3v18.8h19.7v8.7h-19.7v35.7c0 4.3 0.9 7.3 2.7 9.1 1.8 1.8 4.7 2.7 8.9 2.7 2.9 0.1 5.7-0.6 8.2-2.1v8.7c-3 1.3-6.9 2-11.7 2-13.7 0-20.6-6.2-20.6-18.6v-37.5h-11.4zm-70.8 43.2h-0.3c-5.5 7.6-13.5 11.4-24.1 11.4-7.8 0-13.9-1.7-18.3-5-2.1-1.5-3.8-3.5-5-5.8-1.2-2.3-1.8-4.9-1.7-7.5 0-11.9 8.7-18.8 25.9-20.7l23.5-2.7c0-10.8-5.3-16.2-16.1-16.2-9.2-0.1-18.1 2.6-25.6 7.8v-10.4c7.7-3.9 16.6-5.9 26.6-5.9q27.6 0 27.6 23.7v41.3h-12.5zm-32-16.5c-2.9 1.7-4.4 4.6-4.4 8.9 0 1.5 0.4 3 1.1 4.3q1 2.1 3 3.3c2.7 1.9 6.4 2.9 10.9 2.9 6.2 0 11.3-1.8 15.4-5.3 2-1.6 3.5-3.7 4.6-6 1-2.3 1.6-4.9 1.5-7.4v-6.3l-18.9 2.1c-5.9 0.7-10.2 1.8-13.2 3.5zm-31.7 26.5h-11.8v-54.8c0.1-5.3 0.4-10.6 1-15.9h-0.3c-0.8 2.7-1.8 5.4-3 7.9l-34.5 62.8h-5.7l-34.4-62.3q-1.9-4.1-3-8.4h-0.3c0.5 5.3 0.6 10.7 0.6 16v54.7h-11.5v-81.7h15.6l31 57c1.8 3.1 3.4 6.4 4.6 9.8h0.4c2-4.5 3.6-7.8 4.9-10l31.6-56.8h14.8zm-146.2-17.3v-37.5h-13.5v-8.7h13.5v-15.5l12.5-3.3v18.8h19.7v8.7h-19.7v35.7c0 4.2 0.9 7.3 2.7 9.1 1.8 1.8 4.8 2.7 8.9 2.7 2.9 0.1 5.7-0.6 8.2-2.1v8.7c-3 1.3-6.9 2-11.7 2-13.7 0-20.6-6.1-20.6-18.6zm-117.6 17.3v-88.8h31.2c9.5 0 17 1.9 22.6 5.6 5.6 3.8 8.3 8.6 8.3 14.7 0.1 4.9-1.7 9.6-5 13.1-3.4 3.7-8 6.4-14 7.9v0.2c7.4 0.7 13.3 3 17.7 6.8 2.2 1.8 3.9 4.1 5 6.7 1.2 2.6 1.7 5.4 1.6 8.2 0 7.6-3.4 13.8-10.1 18.5-6.7 4.7-15.2 7.1-25.4 7.1zm12.9-79.4v28.7h13.1c7 0 12.6-1.4 16.6-4.1 1.9-1.2 3.5-3 4.6-5 1.1-2 1.6-4.3 1.5-6.6q0-12.9-21-12.9zm0 70h17.4c7.5 0 13.4-1.4 17.6-4.3 2-1.3 3.6-3.1 4.7-5.1 1.1-2.1 1.6-4.4 1.6-6.8 0-10.5-8.8-15.7-26.5-15.7h-14.8zm81.5 9.4h-12.5v-63.4h12.5zm-6.1-79.6c-2.1 0.1-4.1-0.6-5.7-1.9q-1.1-0.8-1.8-2.1c-0.4-0.8-0.6-1.7-0.6-2.6q0-1.4 0.6-2.7 0.6-1.2 1.8-2.1c1.6-1.3 3.7-2 5.7-1.9 2.1-0.1 4.2 0.6 5.9 1.9q1.2 0.7 1.8 2.1c0.4 0.8 0.6 1.7 0.6 2.6 0 0.9-0.2 1.8-0.6 2.6q-0.6 1.2-1.8 2.1c-1.7 1.4-3.8 2.1-5.9 2zm-140.9 61.9c0 7.1-3.4 12.3-8.4 15-5 2.7-12.1 4.2-24.1 4.2h-72.9v-3.5h72.6c11.1 0 18.5-1.8 22.2-3.8 4-2.2 6.7-7.5 6.7-12 0-6.9-4.7-10.6-8.2-12.7-1.8-1.1-7.8-3.8-23.5-3.8h-27.7v-3.5h28.3c17.8 0 21.5 1.7 25.8 4.3 4.6 2.9 9.2 7.9 9.2 15.8zm-3-31.8q13.8 11.4 13.8 31.5c0 13.4-4.8 23.7-14.3 31.1-9.5 7.4-22.7 11.1-39.7 11.1h-45.5v-5.6h45.1c14.1 0 28.1-2.9 36-9.4 4.1-3.3 7.4-7.4 9.6-12.1 2.3-4.7 3.4-9.8 3.3-15 0 9.7-4.1 17.2-11.9 23-8.3 6.2-17.9 7.4-32.3 7.4h-17.2v-5.5h23c4.4 0 15.1-0.1 22.1-5.3 6.9-5.1 11.1-11.2 11.1-19.6 0-8.7-4.2-14.7-11-19.8-5.3-3.9-11.1-5.9-27-5.9h-41.4v-5.5h42c18.6-0.1 25.2 3.5 30.9 7.8 3.8 2.9 8.2 7.1 10.3 14-2-7.2-6.2-13.6-11.9-18.5-7.5-6.6-19.9-9.4-33.6-9.4h-26.1v-5.6h26.8c6.1 0 12.2 0.6 18.2 2 1.4-0.4 2.8-1 4.1-1.7 4-2.3 6.7-7.8 6.7-12.4 0-7.2-4.7-10.9-8.2-13.1-1.8-1.1-7.8-3.9-23.5-3.9h-21.6v-3.6h22.2c17.4 0 21.5 1.8 25.8 4.5 4.4 2.7 8.9 7.5 9.3 15.2-0.3-8.2-4.6-13.9-11.1-18.8-5.3-3.9-11.1-5.9-27-5.9h-30.2v-5.5h31c18.6 0 25.4 3.2 30.9 7.8 3.1 2.7 8.2 7.1 10.3 14-2.2-7.6-4.8-12.6-12-18.5-7.7-6.4-19.9-9.4-33.6-9.4h-39.4v-5.6h40.2c16.1 0 28.7 3.8 37.9 11.4q13.8 11.4 13.8 31.5c0 9-2.2 16.7-6.6 23l0.2 0.1c0.1 0.2 0.3 0.3 0.5 0.2zm-4.9-23.4c0 7.5-3.5 12.8-8.5 15.6l-0.5 0.3c0.5 0.2 1.1 0.4 1.6 0.6 4.6-4.3 7.4-8.5 7.4-16.4q0 0 0-0.1zm0 0q0-0.5 0-0.9 0 0.5 0 0.9 0 0 0 0zm-75.6-8.6h52.4v2.9h-52.4zm18.3 9v2.9h-31.7v-2.9zm-22.1-20.1h13.8v2.5h-13.8zm24.7 101.2v3.7h-33.4v-3.7zm-33.4-23.3h35.5v3.1h-35.5zm18.9-7.8h-11.7v-3.1h11.7zm23 8h22.9v2.6h-22.9zm23.1-11.1v3.1h-39.4v-3.1zm20.9-28.3c0.5 0.3 1 0.5 1.5 0.8 3.8-5.6 5.9-12.2 5.9-19-0.1 6.8-2.7 13.3-7.4 18.2zm-22-15.7h-25.2v-2.9h25.2zm29.4-3.2c0 0.2 0 0.5 0 0.7 0-0.2 0-0.4 0-0.7z"/>
		</g>
		<g id="Clip-Path" clip-path="url(#cp2)">
			<path fill-rule="evenodd" class="s0" d="m64.4 585.3h35.8v22.7h-35.8zm447.3-156.7c0 30.2-14.6 52.9-36.1 64.3-21.5 11.4-51.8 17.9-103.2 17.9h-312.5v-14.9h311c47.4 0 79.3-7.6 95-16.2 17.2-9.4 28.9-32.2 28.9-51.2 0-29.7-20-45.4-35.2-54.4-7.7-4.6-33.3-16.1-100.8-16.1h-118.6v-14.9h121.4c76.1 0 92.2 7.5 110.7 18.6 19.7 11.9 39.4 33.1 39.4 66.9zm-12.9-135c39.4 32.5 59.2 77.4 59.3 134.9 0 57.2-20.4 101.5-61.2 133.1-40.8 31.6-97.5 47.4-170.2 47.4h-195.2v-23.8h193.9c60.2 0 120.4-12.3 154.1-40.2 17.4-13.9 31.4-31.6 40.9-51.7 9.5-20.2 14.3-42.2 14-64.5 0 41.5-17.8 73.7-51.2 98.5-35.6 26.4-76.8 31.7-138.4 31.7h-73.6v-23.7h98.5c18.7 0 64.6-0.6 94.7-22.8 29.4-21.7 47.5-48 47.5-84 0-37.3-17.8-63.2-47.1-84.9-22.9-16.9-47.8-25.3-115.7-25.3h-177.3v-23.4h180.2c79.6 0 107.8 15 132.4 33.6 16.3 12.3 35.1 30.2 44.2 59.8-8.9-30.9-26.7-58.5-51.2-79.3-32.4-28-85.5-40.1-144.2-40.1h-111.8v-24h115c26.2-0.2 52.4 2.6 78 8.4 6.1-1.9 12-4.4 17.6-7.5 17.2-9.7 28.8-33.4 28.8-53.1 0-30.9-20-47-35.2-56.3-7.8-4.7-33.3-16.7-100.8-16.7h-92.6v-15.6h95.3c74.7 0 92.2 7.8 110.6 19.3 19.7 12.3 39.7 34.1 39.7 69.1 0 32.1-14.9 54.8-36.4 66.7l-2.2 1.2c2.4 0.8 4.7 1.7 7 2.6 19.9-18.7 31.7-36.7 31.7-70.4 0-37.3-18.1-63.2-47.4-84.9-22.8-16.9-47.8-25.3-115.7-25.3h-129.6v-23.4h132.6c79.6 0 108.8 13.9 132.3 33.6 13.4 11.2 35 30.2 44.2 59.8-9-32.4-20.3-54.1-51.2-79.3-33.2-27-85.5-40.1-144.2-40.1h-168.8v-24h171.9c69.1 0 123.3 16.2 162.6 48.8 39.4 32.6 59.1 77.5 59.1 134.9 0 38.6-9.3 71.5-28.1 98.5 0.8 0.6 2.4 1.8 3.2 2.4zm-345-138.2h224.6v12.6h-224.6zm78.1 50.9h-135.6v-12.6h135.6zm-94.4-98.4h59.2v10.8h-59.2zm105.5 433.5v15.7h-143v-15.7zm-143-99.8h152v13.1h-152zm81.3-33.7h-50v-13.1h50zm98.5 34.6h98.3v11.2h-98.3zm99.3-34.6h-169v-13.1h169zm89.4-134.2c2.1 1.1 4.2 2.3 6.3 3.5 16.3-24.1 25-52.5 25.1-81.5-0.1 29-11.3 56.9-31.4 78zm-94.4-67.4h-108v-12.6h108zm125.8-13.6q0 1.5 0 3 0-1.5 0-3z"/>
		</g>
	</g>
</svg>