<svg version="1.2" xmlns="http://www.w3.org/2000/svg" viewBox="0 0 2500 2500" width="36" height="36">
	<title>blockchain</title>
	<style>
		.s0 { fill: none } 
		.s1 { fill: #3d89f5 } 
		.s2 { fill: #1656b9 } 
		.s3 { fill: #85b5f8 } 
	</style>
	<g id="Layer_x0020_1">
		<path fill-rule="evenodd" class="s0" d="m0 0h2500v2500h-2500z"/>
		<path fill-rule="evenodd" class="s0" d="m0 0h2500v2500h-2500z"/>
		<g id="_1942031601280">
			<path class="s1" d="m214.9 919.8l-114.3 114.4c-130.7 124.2-133.9 330-9.8 460.7 3.3 3.3 6.5 6.5 9.8 9.8l918.1 927.9c22.9 22.9 45.7 42.5 75.1 55.5v-1127.2z"/>
			<path class="s2" d="m2286.3 919.8l114.4 114.4c127.4 124.2 133.9 330 9.8 460.7-3.3 3.3-6.5 6.5-9.8 9.8l-921.4 924.6c-22.9 22.9-45.7 42.5-75.1 55.6v-1124z"/>
			<path class="s3" d="m2064.1 684.6l-575-575c-127.4-127.4-333.3-130.7-460.7-6.5-3.3 3.3-6.5 3.3-6.5 6.5l-578.3 575 807 401.9z"/>
		</g>
	</g>
</svg>