<svg version="1.2" xmlns="http://www.w3.org/2000/svg" viewBox="0 0 512 512" width="36" height="36">
	<title>electrum-svgrepo-com</title>
	<style>
		.s0 { fill: #e6e6e6 } 
		.s1 { fill: none;stroke: #31a6e0;stroke-miterlimit:10;stroke-width: 20 } 
		.s2 { fill: #103342 } 
	</style>
	<path fill-rule="evenodd" class="s0" d="m256 512c-141.6 0-256-114.4-256-256 0-141.6 114.4-256 256-256 141.6 0 256 114.4 256 256 0 141.6-114.4 256-256 256z"/>
	<g>
		<path fill-rule="evenodd" class="s1" d="m256 362.5c-119.3 0-215.7-47.6-215.7-106.5 0-58.9 96.4-106.5 215.7-106.5 119.3 0 215.7 47.6 215.7 106.5 0 58.9-96.4 106.5-215.7 106.5z"/>
		<path fill-rule="evenodd" class="s1" d="m164.4 310.3c-60.8-102.7-69-209.9-18.3-239.9 50.7-30 140.8 28.7 201.5 131.3 60.8 102.7 69 209.9 18.3 239.9-50.6 30-140.7-28.7-201.5-131.3z"/>
		<path fill-rule="evenodd" class="s1" d="m164.4 201.7c60.8-102.6 150.8-161.3 201.5-131.3 50.7 30 42.5 137.2-18.3 239.9-60.8 102.6-150.8 161.3-201.5 131.3-50.7-30-42.5-137.3 18.3-239.9z"/>
		<g>
			<path class="s2" d="m283.4 288.5h-20.4v14.3h-8.6v-14.1c-2.2 0-4.5 0-6.9-0.1v14.1h-8.6v-14.3c-2 0-4.1 0-6.1-0.1h-11.2l1.7-10.3c0 0 6.4 0.1 6.2 0 2.4 0 3.1-1.8 3.2-2.8v-38.7c-0.3-1.7-1.5-3.8-4.9-3.8 0.1-0.1-6.2 0-6.2 0v-9.2h11.9c1.8 0 3.6 0 5.5-0.1v-14.1h8.6v13.8c2.3 0 4.6-0.1 6.9-0.1v-13.8h8.6v14.1h20.5c0 0 0 9.7 0 9.2h-35.7v17.8h29v8.7h-29v18.6h34z"/>
		</g>
	</g>
</svg>