<svg version="1.2" xmlns="http://www.w3.org/2000/svg" viewBox="0 0 150 150" width="36" height="36">
	<title>etoro</title>
	<style>
		.s0 { fill: none } 
		.s1 { fill: #13cb1e } 
	</style>
	<path id="Layer_3" class="s0" d="m0 0h150v150h-150z"/>
	<path class="s1" d="m147 59.9c-2.2-8.6-19.9-28.3-32.8-44.3-0.3-0.2-1-1.5-2.5-1.5-1.3 0-2.3 1.3-1.8 2.3 0.5 1 12.9 26.8 10.6 35.1-2.3 8.6-13.7 6.8-15.4 6.8-1 0-0.3 0.8 0.7 1.8 6.4 5.6 10.4 13.4 10.4 23.5v7.6q0 0.2 0.3 0.2c14.3-1.2 36.3-10.1 30.5-31.5"/>
	<path class="s1" d="m45.1 60.1c1-1 1.8-1.8 0.8-1.8-1.8 0-13.2 1.8-15.4-6.8-2.3-8.6 10.1-34.1 10.6-35.1 0.2-1-0.5-2.3-2.1-2.3-1.2 0-2.2 1.5-2.5 1.5-12.6 16-30.6 35.7-32.8 44.3-5.8 21.4 16.6 30.3 30.8 31.8 0.2 0 0.2-0.2 0.2-0.2v-7.6c0.3-10.4 4.1-18.2 10.4-23.8z"/>
	<path class="s1" d="m75.4 56.6c-15.4 0.2-32.3 9.1-32.3 27v27.3c0 18.2 16.9 26.8 32.3 27 11.2 0 23.5-4.5 29.6-14.4 0.3-0.2 0-0.7-0.2-1-5.4-3-8.4-4.8-13.7-7.5q-0.2 0-0.5 0.2c-2.8 4.8-10.1 7.3-15.2 7.3-6.8 0-15.6-4.3-15.6-11.6v-8.1h42.7c2.2 0 4-1.7 4-4v-14.9c0-18.2-15.9-27.1-31.1-27.3zm14.9 31.8q0.1 0.3-0.2 0.5c0 0.3-0.3 0.3-0.5 0.3h-29.8v-5.3c0-7.4 8.8-10.9 15.6-10.9 6.9 0 14.9 3.5 14.9 10.9z"/>
</svg>