<svg version="1.2" xmlns="http://www.w3.org/2000/svg" viewBox="0 0 134 133" width="36" height="36">
	<title>exodus-wallet-seeklogo</title>
	<defs>
		<linearGradient id="g1" x2="1" gradientUnits="userSpaceOnUse" gradientTransform="matrix(69.521,0,0,69.601,11,68)">
			<stop offset="0" stop-color="#00bfff"/>
			<stop offset="1" stop-color="#6619ff"/>
		</linearGradient>
	</defs>
	<style>
		.s0 { fill: #252133 } 
		.s1 { fill: url(#g1) } 
	</style>
	<g>
		<path fill-rule="evenodd" class="s0" d="m367.7 28.7v67.6c0 1 0.4 2.1 1.2 2.9 0.7 0.8 1.8 1.3 2.9 1.3h1.2c1.1 0 2.2-0.5 3-1.3 0.7-0.8 1.2-1.9 1.2-2.9v-67.6h7.8v69.3c0 5.3-4.2 9.5-9.4 9.6h-6c-2.6 0-5.1-0.9-6.9-2.7-1.8-1.9-2.9-4.3-2.9-6.9v-69.3zm55.8-0.8c5.2 0.2 9.5 5.1 9.5 10.4v6.3c0 0.9-0.6 1.6-1.5 1.9l-6.5 1.8v-9c0-2.3-1.9-4.1-4.2-4.1-2.2 0-4.1 1.8-4.1 4.1v7.5c0 4.6 3.4 10.5 3.4 10.5l9.3 18c3.8 7.1 3.5 12.4 3.5 12.4v9.9c0 2.6-1 5.2-2.8 7.1-1.9 1.9-4.4 2.9-7.1 2.9h-4.9c-5.3-0.3-9.5-4.6-9.5-10v-11.1c0-0.9 0.6-1.7 1.5-1.9l6.5-1.9v13.7c0 2.3 1.9 4.1 4.2 4.1 2.3 0 4.2-1.9 4.1-4.2v-9c0-4.5-3.4-10.6-3.4-10.6l-9.2-18c-3.8-7.1-3.5-12.4-3.5-12.4v-8c0-5.4 4.4-10.4 9.9-10.4zm-147.9 0c5.3 0.3 9.4 4.7 9.4 10v60c0 5.2-4.2 9.5-9.4 9.8h-6.1c-5.3-0.1-9.7-4.4-9.7-9.8v-60c0-2.6 1-5.1 2.8-7 1.8-1.9 4.4-3 7-3zm-90 0.7l-1.9 6.6c-0.3 0.9-1 1.5-1.9 1.5h-12.6v25.1h13l-1.9 6.6c-0.2 0.8-1 1.4-1.9 1.4h-9.2v29h16.4l-1.9 6.6c-0.2 0.8-1 1.4-1.9 1.4h-20.4v-78.2zm139.7 0c5.4 0.1 9.7 4.5 9.7 9.8v58.6c0 5.3-4.4 9.7-9.7 9.7h-15.2v-78.1zm-103.2 25.2l7.2-25.2h8l-11.2 39.2 11.2 39.1h-8l-7.2-25.2-7.2 25.1h-8.1l11.2-39-11.2-39.2h8zm50.9 46.8c1.2 0 2.2-0.5 3-1.3 0.7-0.8 1.2-1.9 1.1-3.1v-56.9c0.1-1.1-0.4-2.2-1.1-3-0.8-0.8-1.8-1.3-3-1.4h-1.2c-2.3 0.2-4.1 2.1-4.1 4.4v56.9c0 2.4 1.8 4.3 4.1 4.4zm50.1-1.6c2.2 0 4.2-1.2 4.2-4.2v-54c0-2.9-2-4.1-4.2-4.1h-5.1v62.3z"/>
		<path class="s1" d="m88.1 68l32.9 32.9h-11.6c-2 0-4-0.9-5.3-2.2l-30.6-30.7 30.7-30.7c1.4-1.4 3.3-2.2 5.3-2.1h11.5zm-60.2-30.8c-1.4-1.3-3.3-2.2-5.3-2.1h-11.6l32.9 32.9-32.9 32.8h11.6c2 0 3.9-0.8 5.3-2.2l30.6-30.7zm38.1 38.2l-30.7 30.7c-1.4 1.4-2.1 3.3-2.1 5.3v11.5l32.8-32.8 32.9 32.8v-11.6c0-1.9-0.8-3.9-2.2-5.3zm0-15l30.7-30.7c1.4-1.4 2.2-3.3 2.2-5.3v-11.6l-32.9 32.9-32.8-32.9v11.6c0 2 0.7 3.9 2.1 5.3z"/>
	</g>
</svg>