<svg version="1.2" xmlns="http://www.w3.org/2000/svg" viewBox="0 0 2500 2500" width="36" height="36">
	<title>huobi-token-logo</title>
	<style>
		.s0 { fill: #0066ed } 
		.s1 { fill: #ffffff } 
	</style>
	<g id="Layer_x0020_1">
		<g id="_1704856852608">
			<path fill-rule="evenodd" class="s0" d="m1250 2500c-691.3 0-1250-558.8-1250-1250 0-691.3 558.7-1250 1250-1250 691.3 0 1250 558.7 1250 1250 0 691.3-558.8 1250-1250 1250z"/>
			<path class="s1" d="m1041 1724c4-396 425-479 378-912-14-124-74-272-196-390-6-6-17-1-16 8 37 397-243 585-369 751-279 367-74 838 340 900 9 1 15-10 8-16-85-84-145-191-145-341z"/>
			<path class="s1" d="m1582 1090c-6-5-14-2-16 5-10 51-42 136-144 284-265 384-137 555-21 684 26 30 13-7 67-44 73-51 104-57 173-118 79-79 143-203 149-329 13-274-148-430-208-482z"/>
		</g>
	</g>
</svg>