<svg version="1.2" xmlns="http://www.w3.org/2000/svg" viewBox="0 0 26 18" width="36" height="25">
	<title>imtoken-seeklogo</title>
	<defs>
		<linearGradient id="g1" x2="1" gradientUnits="userSpaceOnUse" gradientTransform="matrix(-15.825,22.396,-19.942,-14.09,23.761,.635)">
			<stop offset="0" stop-color="#11c4d1"/>
			<stop offset="1" stop-color="#0062ad"/>
		</linearGradient>
	</defs>
	<style>
		.s0 { fill: url(#g1) } 
		.s1 { fill: #191c1e } 
	</style>
	<path class="s0" d="m24.4 0.7c0.8 11-6.2 16.1-12.5 16.7-5.9 0.5-11.4-3.1-11.9-8.6-0.4-4.6 2.5-6.5 4.7-6.7 2.3-0.2 4.2 1.3 4.3 3.2 0.2 1.9-0.9 2.7-1.7 2.8-0.7 0-1.5-0.3-1.5-1.2-0.1-0.7 0.2-0.8 0.1-1.5-0.1-1.3-1.3-1.5-1.9-1.4-0.8 0-2.2 0.9-2 3.2 0.2 2.2 2.4 4 5.2 3.7 3.1-0.2 5.2-2.6 5.4-5.9q0-0.3 0.1-0.6 0-0.1 0.1-0.2 0.1-0.1 0.2-0.3 0 0 0.1 0 0.1-0.1 0.2-0.3c1.4-1.2 6.2-4.2 10.7-3.3q0.2 0.1 0.3 0.2 0.1 0.1 0.1 0.2z"/>
	<path class="s1" d="m35.6 5.5v10.8q0 0 0 0 0 0.1-0.1 0.1h-2.3q0 0 0-0.1 0 0 0 0v-10.8q0 0 0 0 0 0 0 0h2.4q0 0 0 0 0 0 0 0z"/>
	<path class="s1" d="m53.6 1.6q0 0 0 0.1 0 0 0 0v1.9q0 0 0 0.1 0 0 0 0h4.6v12.6q0 0 0.1 0.1 0 0 0 0h2.4q0 0 0 0 0-0.1 0-0.1v-12.6h4.3q0 0 0 0 0-0.1 0-0.1v-1.9q0 0 0 0 0-0.1 0-0.1z"/>
	<path class="s1" d="m54.5 16.3q0 0-0.1 0.1 0 0 0 0h-2.2q-0.1 0-0.1 0 0-0.1 0-0.1v-6.3q0-0.4-0.1-0.9c-0.1-1.1-0.5-1.8-2-1.8q-0.7 0-1.3 0.4-0.8 0.4-1.2 1.1 0 0.5 0 1v6.6q0 0.1 0 0.1 0 0 0 0h-2.2q0 0-0.1 0 0 0 0-0.1v-5.7c0-1.1 0.1-2.2-0.4-2.8q-0.4-0.3-0.8-0.5-0.4-0.1-0.9-0.1-0.7 0-1.3 0.3-0.3 0.2-0.7 0.5-0.3 0.3-0.5 0.8v7.4q0 0 0 0.1 0 0 0 0h-2.3q0 0 0 0 0-0.1 0-0.1v-10.7q0 0 0 0 0-0.1 0-0.1h1q0.3 0 0.5 0.2 0.2 0.2 0.3 0.5 0.1 0.2 0.1 0.3c1-0.8 2.2-1.3 3.5-1.2q0.7-0.1 1.4 0.2 0.7 0.2 1.2 0.8 0.2 0.2 0.4 0.6 0.8-0.8 1.7-1.2 1-0.4 2.1-0.4c1.2 0 3.9 0.4 3.9 4.2z"/>
	<path class="s1" d="m87.3 16.4h-2.4q-0.1 0-0.1 0 0 0 0 0c-0.5-0.7-1.6-2.4-1.7-2.5l-0.1-0.1c-0.4-0.5-1.3-1.7-2.5-2l-0.9 1v3.6q0 0 0 0 0 0 0 0 0 0-0.1 0 0 0 0 0h-2.3q0 0 0 0 0 0 0 0v-14.9q0 0 0-0.1 0 0 0 0h2.4q0 0 0 0 0 0.1 0 0.1v8.4l4.5-4.6h2.6q0.1 0 0.1 0c0.1 0.1 0 0.1 0 0.2l-4.7 4.8c1.1 0.5 2 1.3 2.6 2.3l0.1 0.1c0.2 0.2 1.9 2.7 2.6 3.6q0 0 0 0.1 0 0 0 0 0 0 0 0-0.1 0.1-0.1 0z"/>
	<path class="s1" d="m35.8 2.6q0.1 0.5-0.2 0.8-0.2 0.4-0.6 0.6-0.4 0.2-0.9 0.1-0.4-0.1-0.7-0.4-0.3-0.3-0.4-0.7-0.1-0.5 0.1-0.9 0.1-0.4 0.5-0.6 0.4-0.3 0.8-0.3 0.3 0 0.5 0.1 0.3 0.1 0.5 0.3 0.2 0.2 0.3 0.5 0.1 0.2 0.1 0.5z"/>
	<path class="s1" d="m69.8 5c-3.3 0-5.3 2.2-5.3 5.8 0 3.5 2 5.7 5.3 5.7 3.3 0 5.4-2.2 5.4-5.7 0-3.6-2.1-5.8-5.4-5.8zm2.1 8.7q-0.4 0.4-1 0.6-0.5 0.2-1.1 0.2c-2.5 0-3.1-2.1-3.1-3.8 0-2.5 1-3.7 3.1-3.7 2.1 0 3 1.3 3 3.8q0 2-0.9 2.9z"/>
	<path class="s1" d="m97.7 13.1c-0.1-0.1-0.2 0-0.3 0l-1.9 0.3q-0.1 0-0.1 0-0.1 0-0.1 0.1-0.3 0.5-0.9 0.8-0.5 0.4-1.1 0.4-0.9 0.1-1.6-0.2-0.8-0.3-1.3-1c-0.3-0.5-0.5-1-0.6-1.6l5.7-0.8q0.6-0.1 1-0.4 0.5-0.3 0.7-0.7 0.3-0.5 0.3-1.1 0-0.5-0.2-1c-0.6-1.1-1.5-2-2.7-2.5-0.8-0.3-1.7-0.4-2.6-0.3-0.9 0.1-1.7 0.5-2.5 1-0.6 0.5-1.1 1.2-1.5 1.9-0.4 0.8-0.5 1.6-0.5 2.5q-0.1 0.8 0.1 1.6c0.4 2.3 2 4.6 5 4.6 3.5 0 4.8-2.2 5-3.4 0.1-0.1 0.1-0.2 0.1-0.2zm-7.3-4.9q0.4-0.5 0.9-0.8 0.6-0.3 1.2-0.4 0.6-0.1 1.2 0.1 0.6 0.2 1 0.6 0.4 0.3 0.6 0.7 0 0.1 0 0.3 0 0.1 0 0.3-0.1 0.1-0.2 0.2-0.1 0.1-0.3 0.1l-5.2 0.7c0.1-0.7 0.4-1.3 0.8-1.8z"/>
	<path class="s1" d="m109 9.6v6.7q0 0-0.1 0 0 0.1 0 0.1h-2.2q-0.1 0-0.1-0.1 0 0 0 0v-5.5c0 0 0-1-0.1-1.8q0-0.4-0.1-0.8-0.2-0.4-0.5-0.7-0.3-0.2-0.7-0.3-0.4-0.1-0.8-0.1c-1.1 0.2-2.1 0.7-2.7 1.5v7.7q0 0-0.1 0 0 0.1 0 0.1h-2.2q-0.1 0-0.1-0.1 0 0 0 0v-10.9q0 0 0 0 0-0.1 0.1-0.1h1.8q0.1 0 0.1 0.1 0 0 0 0v1.1c0.9-0.9 2.2-1.4 3.4-1.4 1.1-0.1 4.3 0 4.3 4.5z"/>
</svg>