<svg version="1.2" xmlns="http://www.w3.org/2000/svg" viewBox="0 0 139 139" width="36" height="36">
	<title>math-wallet-seeklogo</title>
	<style>
		.s0 { fill: #000000 } 
	</style>
	<g id="Page-1">
		<g id="A3">
			<g id="MathWallet_Logo_Horizontal">
				<path id="Combined-Shape" class="s0" d="m173.9 95.6v-51.1h9.6l15.6 24.2 15.6-24.2h9.6v51.1h-9v-36.6l-16.3 24.1h-0.3l-16-23.9v36.5h-8.8zm73.3 0.8c-7.2 0-13.7-4.2-13.7-11.9v-0.1c0-8.3 6.5-12.4 15.9-12.4 4.3 0 7.4 0.7 10.4 1.6v-0.9c0-5.5-3.4-8.4-9.6-8.4-4.3 0-7.5 0.9-11 2.4l-2.3-6.9c4.2-1.9 8.4-3.1 14.5-3.1 5.8 0 10.1 1.5 12.8 4.3 2.8 2.8 4.2 6.9 4.2 11.9v22.9h-8.6v-4.8c-2.6 2.9-6.7 5.4-12.6 5.4zm2.5-6.4c5.8 0 10.3-3.4 10.3-8.3v-2.6c-2.3-0.9-5.3-1.5-8.8-1.5-5.7 0-9.1 2.4-9.1 6.4v0.1c0.1 3.8 3.4 5.9 7.6 5.9zm41.7 6.3c-6.5 0-11.1-2.8-11.1-11.3v-20.3h-4.9v-7.6h4.9v-10.6h8.8v10.6h10.4v7.6h-10.4v18.9c0 3.4 1.8 4.8 4.7 4.8 2 0 3.7-0.4 5.5-1.3v7.2c-2.1 1.3-4.5 2-7.9 2zm17-0.7v-53.3h8.8v20.7c2.5-3.6 6.1-6.7 12-6.7 8.7 0 13.7 5.8 13.7 14.7v24.6h-8.8v-21.9c0-6-3-9.4-8.3-9.4-5.1 0-8.7 3.6-8.7 9.6v21.8h-8.7zm81.8 0.4l-17.8-51.5h9.7l12.2 37.9 12.6-38h7.6l12.6 38 12.2-37.9h9.4l-17.8 51.5h-7.8l-12.6-36.7-12.6 36.7zm72.5 0.4c-7.2 0-13.7-4.2-13.7-11.9v-0.1c0-8.3 6.5-12.4 15.9-12.4 4.3 0 7.4 0.7 10.4 1.6v-0.9c0-5.5-3.4-8.4-9.6-8.4-4.3 0-7.5 0.9-11 2.4l-2.3-6.9c4.2-1.9 8.4-3.1 14.5-3.1 5.8 0 10.1 1.5 12.8 4.3 2.8 2.8 4.2 6.9 4.2 11.9v22.9h-8.6v-4.8c-2.7 2.9-6.7 5.4-12.6 5.4zm2.4-6.4c5.8 0 10.3-3.4 10.3-8.3v-2.6c-2.3-0.9-5.3-1.5-8.8-1.5-5.7 0-9.1 2.4-9.1 6.4v0.1c0.1 3.8 3.4 5.9 7.6 5.9zm29.7 5.6v-53.3h8.8v53.3zm20.8 0v-53.3h8.8v53.3zm37.9 0.9c-11.2 0-19.8-8.1-19.8-20v-0.1c0-11 7.8-20.1 18.8-20.1 12.3 0 18.5 9.6 18.5 20.7 0 0.8-0.1 1.6-0.1 2.5h-28.3c0.9 6.3 5.4 9.8 11.1 9.8 4.3 0 7.4-1.6 10.4-4.6l5.2 4.6c-3.7 4.4-8.7 7.2-15.8 7.2zm-11.1-22.9h19.8c-0.6-5.7-3.9-10.1-9.8-10.1-5.4 0-9.2 4.2-10 10.1zm50.3 22.7c-6.5 0-11.1-2.8-11.1-11.3v-20.3h-4.9v-7.6h4.9v-10.6h8.8v10.6h10.4v7.6h-10.4v18.9c0 3.4 1.8 4.8 4.7 4.8 2 0 3.7-0.4 5.5-1.3v7.2c-2.1 1.3-4.5 2-7.9 2zm-489.5-34.8c-2.9-2.9-2.9-7.5 0-10.4 2.9-2.9 7.5-2.9 10.4 0 2.9 2.9 2.9 7.5 0 10.4-2.9 2.9-7.5 2.9-10.4 0zm-24.6 24.7c-2.1-2.1-2.1-5.6 0-7.8 2.1-2.1 5.6-2.1 7.8 0 2.1 2.1 2.1 5.6 0 7.8-2.2 2.1-5.7 2.1-7.8 0zm38.9-13c-2.1-2.1-2.1-5.6 0-7.8 2.1-2.1 5.6-2.1 7.8 0 2.1 2.1 2.1 5.6 0 7.8-2.2 2.2-5.7 2.2-7.8 0zm-13 13c-2.1-2.1-2.1-5.6 0-7.8 2.1-2.1 5.6-2.1 7.8 0 2.1 2.1 2.1 5.6 0 7.8-2.2 2.1-5.6 2.1-7.8 0zm27.3-1.3c-1.4-1.4-1.4-3.8 0-5.2 1.4-1.4 3.8-1.4 5.2 0 1.4 1.4 1.4 3.8 0 5.2-1.5 1.4-3.8 1.4-5.2 0zm-13 13c-1.4-1.4-1.4-3.8 0-5.2 1.4-1.4 3.8-1.4 5.2 0 1.4 1.4 1.4 3.8 0 5.2-1.5 1.4-3.8 1.4-5.2 0zm-28.6-23.4c-2.9-2.9-2.9-7.5 0-10.4 2.9-2.9 7.5-2.9 10.4 0 2.9 2.9 2.9 7.5 0 10.4-2.8 2.9-7.5 2.9-10.4 0zm0-25.9c-2.9-2.9-2.9-7.5 0-10.4 2.9-2.9 7.5-2.9 10.4 0 2.9 2.9 2.9 7.5 0 10.4-2.8 2.8-7.5 2.8-10.4 0zm-12.9 12.9c-2.9-2.9-2.9-7.5 0-10.4 2.9-2.9 7.5-2.9 10.4 0 2.9 2.9 2.9 7.5 0 10.4-2.9 2.9-7.6 2.9-10.4 0zm-26.1 0c-2.9-2.9-2.9-7.5 0-10.4 2.9-2.9 7.5-2.9 10.4 0 2.9 2.9 2.9 7.5 0 10.4-2.9 2.9-7.5 2.9-10.4 0zm-24.7 24.7c-2.1-2.1-2.1-5.6 0-7.8 2.1-2.1 5.6-2.1 7.8 0 2.1 2.1 2.1 5.6 0 7.8-2.1 2.1-5.6 2.1-7.8 0zm39-13c-2.1-2.1-2.1-5.6 0-7.8 2.1-2.1 5.6-2.1 7.8 0 2.1 2.1 2.1 5.6 0 7.8-2.2 2.2-5.7 2.2-7.8 0zm-13 13c-2.1-2.1-2.1-5.6 0-7.8 2.1-2.1 5.6-2.1 7.8 0 2.1 2.1 2.1 5.6 0 7.8-2.2 2.1-5.7 2.1-7.8 0zm-50.6-1.3c-1.4-1.4-1.4-3.8 0-5.2 1.4-1.4 3.8-1.4 5.2 0 1.4 1.4 1.4 3.8 0 5.2-1.5 1.4-3.8 1.4-5.2 0zm13 13c-1.4-1.4-1.4-3.8 0-5.2 1.4-1.4 3.8-1.4 5.2 0 1.4 1.4 1.4 3.8 0 5.2-1.5 1.4-3.8 1.4-5.2 0zm51.9 0c-1.4-1.4-1.4-3.8 0-5.2 1.4-1.4 3.8-1.4 5.2 0 1.4 1.4 1.4 3.8 0 5.2-1.5 1.4-3.8 1.4-5.2 0zm-53.2-24.7c-2.1-2.1-2.1-5.6 0-7.8 2.1-2.1 5.6-2.1 7.8 0 2.1 2.1 2.1 5.6 0 7.8-2.2 2.2-5.7 2.2-7.8 0zm24.6 1.3c-2.9-2.9-2.9-7.5 0-10.4 2.9-2.9 7.5-2.9 10.4 0 2.9 2.9 2.9 7.5 0 10.4-2.9 2.9-7.5 2.9-10.4 0zm0-25.9c-2.9-2.9-2.9-7.5 0-10.4 2.9-2.9 7.5-2.9 10.4 0 2.9 2.9 2.9 7.5 0 10.4-2.9 2.8-7.5 2.8-10.4 0zm-13 12.9c-2.9-2.9-2.9-7.5 0-10.4 2.9-2.9 7.5-2.9 10.4 0 2.9 2.9 2.9 7.5 0 10.4-2.8 2.9-7.5 2.9-10.4 0z"/>
			</g>
		</g>
	</g>
</svg>