<svg version="1.2" xmlns="http://www.w3.org/2000/svg" viewBox="0 0 150 150" width="36" height="36">
	<title>nexo-old</title>
	<style>
		.s0 { fill: none } 
		.s1 { fill: #3ca9e5 } 
		.s2 { fill: #2853c3 } 
		.s3 { fill: #60beff } 
		.s4 { fill: #1a4199 } 
	</style>
	<path id="Layer_3" class="s0" d="m0 0h150v150h-150z"/>
	<path class="s1" d="m41.5 131.1l34.8-19.4-36.8-19.5z"/>
	<path class="s2" d="m109.1 17.8l-33.8 18.8 35.8 21.2z"/>
	<path class="s3" d="m7.8 36.6v74.2q0 0.1 0 0.3 0 0.2 0.1 0.3 0 0.2 0.1 0.3 0 0.2 0.1 0.3 0.1 0.1 0.2 0.3 0.1 0.1 0.2 0.2 0.2 0.1 0.3 0.3 0.1 0.1 0.3 0.1l32.5 18.2v-81.3z"/>
	<path class="s1" d="m42.8 18.5l66.3 37 0.9 38.8-102.2-57.7 32.5-18.1q0.1-0.1 0.3-0.2 0.1 0 0.3-0.1 0.2 0 0.3 0 0.2-0.1 0.4-0.1 0.1 0 0.3 0.1 0.2 0 0.3 0 0.2 0.1 0.3 0.1 0.2 0.1 0.3 0.2z"/>
	<path class="s4" d="m109.1 17.8l32.5 18.1q0.2 0.1 0.3 0.2 0.1 0.1 0.3 0.2 0.1 0.1 0.2 0.3 0.1 0.1 0.2 0.2 0.1 0.2 0.1 0.3 0.1 0.2 0.1 0.4 0.1 0.1 0.1 0.3 0 0.2 0 0.3v74.1l-33.8-16.9z"/>
	<path class="s2" d="m142.9 112.2l-32.5 18.2q-0.3 0.2-0.6 0.2-0.4 0.1-0.7 0.1-0.3 0-0.7-0.1-0.3 0-0.6-0.2l-66.3-37.1-1.1-38.4z"/>
</svg>