<svg version="1.2" xmlns="http://www.w3.org/2000/svg" viewBox="0 0 150 150" width="36" height="36">
	<title>okx</title>
	<style>
		.s0 { fill: none } 
		.s1 { fill: #000000 } 
	</style>
	<g id="b">
		<g id="c">
			<path id="d" class="s0" d="m0 0h150v150h-150z"/>
		</g>
	</g>
	<path class="s1" d="m13.8 13.6v124h124v-124zm26.8 28.6c0-0.9 0.7-1.6 1.6-1.6h20.3c0.9 0 1.6 0.7 1.6 1.6v20.3c0 0.9-0.7 1.6-1.6 1.6h-20.3c-0.9 0-1.6-0.7-1.6-1.6zm23.5 66.7c0 0.9-0.7 1.6-1.6 1.6h-20.3c-0.9 0-1.6-0.7-1.6-1.6v-20.3c0-0.9 0.7-1.6 1.6-1.6h20.3c0.9 0 1.6 0.7 1.6 1.6zm21.8-21.6h-20.3c-0.8 0-1.6-0.7-1.6-1.6v-20.3c0-0.9 0.7-1.6 1.6-1.6h20.3c0.9 0 1.6 0.7 1.6 1.6v20.3c0 0.9-0.7 1.6-1.6 1.6zm25.1 21.6c0 0.9-0.7 1.6-1.6 1.6h-20.3c-0.9 0-1.6-0.7-1.6-1.6v-20.3c0-0.9 0.7-1.6 1.6-1.6h20.3c0.9 0 1.6 0.7 1.6 1.6zm0-46.4c0 0.9-0.7 1.6-1.6 1.6h-20.3c-0.9 0-1.6-0.7-1.6-1.6v-20.3c0-0.9 0.7-1.6 1.6-1.6h20.3c0.9 0 1.6 0.7 1.6 1.6z"/>
</svg>