<svg version="1.2" xmlns="http://www.w3.org/2000/svg" viewBox="0 0 128 128" width="36" height="36">
	<title>Phantom_SVG_Icon</title>
	<style>
		.s0 { fill: #ab9ff2 } 
		.s1 { fill: #fffdf8 } 
	</style>
	<path fill-rule="evenodd" class="s0" d="m0 0h128v128h-128z"/>
	<path fill-rule="evenodd" class="s1" d="m55.6 82.1c-4.7 7.4-12.7 16.6-23.3 16.6-5.1 0-9.9-2.1-9.9-11.1 0-22.8 31.2-58.3 60.2-58.3 16.5 0 23.1 11.5 23.1 24.5 0 16.6-10.8 35.7-21.6 35.7-3.4 0-5.1-1.9-5.1-4.8q0-1.2 0.4-2.6c-3.7 6.3-10.7 12.1-17.4 12.1-4.8 0-7.3-3-7.3-7.3 0-1.5 0.4-3.1 0.9-4.8zm20.3-34.5c-2.6 0-4.8 1.9-4.8 5.7 0 3.8 2.2 5.7 4.8 5.7 2.5 0 4.7-1.9 4.7-5.7 0-3.8-2.2-5.7-4.7-5.7zm14.2 0c-2.6 0-4.8 1.9-4.8 5.7 0 3.8 2.2 5.7 4.8 5.7 2.5 0 4.7-1.9 4.7-5.7 0-3.8-2.2-5.7-4.7-5.7z"/>
</svg>