<?xml version="1.0" encoding="UTF-8"?>
<svg id="logosandtypes_com" data-name="logosandtypes com" xmlns="http://www.w3.org/2000/svg" viewBox="0 0 150 150">
  <defs>
    <style>
      .cls-1 {
        fill: #b15ee6;
      }

      .cls-2 {
        fill: #ab0354;
      }

      .cls-3 {
        fill: #3251df;
      }

      .cls-4 {
        fill: none;
      }

      .cls-5 {
        fill: #ff505d;
      }

      .cls-6 {
        fill: #3a1f54;
      }
    </style>
  </defs>
  <path id="Layer_3" data-name="Layer 3" class="cls-4" d="M0,0H150V150H0V0Z"/>
  <g>
    <path class="cls-3" d="M75.19,66.57c-6.33-10.45-13.89-20.21-23.21-29.03H12.08c-5.08,.73-7.62,4.35-7.62,8.35,0,.73,.36,1.81,.73,2.9l42.43,52.97c11.78-12.03,21.76-23.85,27.56-35.19Z"/>
    <path class="cls-6" d="M75.19,66.57l-27.93,34.83,19.22,23.95c2.54,1.81,5.44,2.9,8.71,2.9s6.53-1.45,9.07-3.27l18.86-23.58c-9.73-13.76-19.27-26.59-27.93-34.83Z"/>
    <path class="cls-1" d="M86.8,37.55H51.98l23.21,29.03c7.52-5.19,14.39-14.93,21.04-26.12-2.54-1.81-5.81-2.9-9.44-2.9"/>
    <path class="cls-2" d="M119.8,68.75l-18.5-23.22c-1.81-2.18-3.27-3.99-5.08-5.08l-21.04,26.12,27.93,35.19,18.5-23.22c1.81-4.72-1.45-9.44-1.82-9.8Z"/>
    <path class="cls-5" d="M146.64,45.17c0-4.72-4.35-6.89-7.98-7.62h-33.73c1.81,.36,3.27,2.18,4.35,3.63l17.05,21.41c1.32,1.73,2.31,3.7,2.9,5.8l17.05-21.41c.36-.36,.36-1.09,.36-1.81"/>
  </g>
</svg>