<svg version="1.2" xmlns="http://www.w3.org/2000/svg" viewBox="0 0 527 527" width="36" height="36">
	<title>walletconnect-seeklogo</title>
	<defs>
		<radialGradient id="g1" cx="0" cy="0" r="1" gradientUnits="userSpaceOnUse" gradientTransform="matrix(512,0,0,512,7.002,264.008)">
			<stop offset="0" stop-color="#5d9df6"/>
			<stop offset="1" stop-color="#006fff"/>
		</radialGradient>
	</defs>
	<style>
		.s0 { fill: url(#g1) } 
		.s1 { fill: #ffffff } 
	</style>
	<g>
		<path fill-rule="evenodd" class="s0" d="m263 8c141.4 0 256 114.6 256 256 0 141.4-114.6 256-256 256-141.4 0-256-114.6-256-256 0-141.4 114.6-256 256-256z"/>
		<path class="s1" d="m169.7 205.7c51.5-50.3 135.1-50.3 186.6 0l6.2 6.1c2.6 2.5 2.6 6.6 0 9.1l-21.2 20.7c-1.3 1.3-3.4 1.3-4.7 0l-8.5-8.3c-36-35.1-94.2-35.1-130.2 0l-9.1 8.9c-1.3 1.3-3.4 1.3-4.7 0l-21.2-20.7c-2.6-2.5-2.6-6.6 0-9.1zm230.5 42.8l18.9 18.4c2.6 2.5 2.6 6.6 0 9.1l-85.1 83.1c-2.6 2.5-6.8 2.5-9.3 0l-60.4-59c-0.6-0.6-1.7-0.6-2.3 0l-60.4 59c-2.6 2.5-6.8 2.5-9.3 0l-85.4-83.1c-2.6-2.5-2.6-6.6 0-9.1l18.9-18.4c2.6-2.5 6.8-2.5 9.3 0l60.4 59c0.6 0.6 1.7 0.6 2.3 0l60.4-59c2.6-2.5 6.8-2.5 9.3 0l60.4 59c0.6 0.6 1.7 0.6 2.3 0l60.4-59c2.8-2.5 7-2.5 9.6 0z"/>
	</g>
</svg>